<svg xmlns="http://www.w3.org/2000/svg" version="1.1" xmlns:xlink="http://www.w3.org/1999/xlink" xmlns:svgjs="http://svgjs.dev/svgjs" width="1000" height="608" viewBox="0 0 1000 608"><g transform="matrix(1,0,0,1,-0.6060449981126794,0.590161270125293)"><svg viewBox="0 0 396 241" data-background-color="#110202" preserveAspectRatio="xMidYMid meet" height="608" width="1000" xmlns="http://www.w3.org/2000/svg" xmlns:xlink="http://www.w3.org/1999/xlink"><g id="tight-bounds" transform="matrix(1,0,0,1,0.23999381925261787,-0.23392905608584158)"><svg viewBox="0 0 395.52 241.46785811217168" height="241.46785811217168" width="395.52"><g><svg viewBox="0 0 395.52 241.46785811217168" height="241.46785811217168" width="395.52"><g transform="matrix(1,0,0,1,0,177.16253109337222)"><svg viewBox="0 0 395.52 64.30532701879946" height="64.30532701879946" width="395.52"><g><svg viewBox="0 0 395.52 64.30532701879946" height="64.30532701879946" width="395.52"><g><svg viewBox="0 0 395.52 39.71513582705163" height="39.71513582705163" width="395.52"><g transform="matrix(1,0,0,1,0,0)"><svg width="395.52" viewBox="2.25 -35.099998474121094 351.5199890136719 35.29999923706055" height="39.71513582705163" data-palette-color="#ffffff"><path d="M11.9-0.95L11.9-0.95Q15.6-0.95 18.4-3.13 21.2-5.3 21.2-9.75L21.2-9.75Q21.2-11.75 20.23-13.18 19.25-14.6 17.65-15.38 16.05-16.15 14.15-16.73 12.25-17.3 10.35-17.95 8.45-18.6 6.85-19.5 5.25-20.4 4.28-22.05 3.3-23.7 3.3-26L3.3-26Q3.3-30 6.05-32.55 8.8-35.1 13.4-35.1 18-35.1 22.2-34.05L22.2-34.05 22.75-27.8 21.8-27.4 21.3-31.35Q17.6-34.1 14.35-34.1 11.1-34.1 8.9-32.13 6.7-30.15 6.7-26.2L6.7-26.2Q6.7-23.9 8.55-22.55 10.4-21.2 13.03-20.45 15.65-19.7 18.28-18.75 20.9-17.8 22.75-15.55 24.6-13.3 24.6-9.7L24.6-9.7Q24.6-4.85 21.15-2.4 17.7 0.05 12.05 0.05 6.4 0.05 2.25-3L2.25-3 2.3-8.3 3.25-8.55 3.35-5.7Q4.7-3.8 7.05-2.38 9.4-0.95 11.9-0.95ZM44.4-34.95L54.15-35Q54.15-34.95 54.2-34.25L54.2-34.25 49.95-33.85 37.8-19.7 52.6-0.9 54.95-0.75Q54.95-0.7 54.9 0L54.9 0 49.5 0.05 35.05-18.2 35-18.25 35-0.95 38.4-0.75Q38.4-0.7 38.35 0L38.35 0 28.35 0.05Q28.35-0.4 28.4-0.65L28.4-0.65 31-1Q31.5-1.05 31.6-1.65L31.6-1.65 31.6-33.3Q31.4-33.9 31-33.95L31-33.95 28.4-34.2Q28.35-34.5 28.35-34.95L28.35-34.95 38.35-35Q38.35-34.95 38.4-34.25L38.4-34.25 35-33.95 35-18.3 35.1-18.35 47.35-33Q47.75-33.8 47.05-33.95L47.05-33.95 44.45-34.2Q44.4-34.5 44.4-34.95L44.4-34.95ZM35-18.25L35-18.3 35-18.25ZM76.9-34.95L86.65-35Q86.65-34.95 86.7-34.25L86.7-34.25 83.85-34 73.15-11.8 73.15-0.95 76.8-0.75Q76.8-0.7 76.75 0L76.75 0 66.75 0.05Q66.75-0.4 66.8-0.65L66.8-0.65 69.4-1Q69.9-1.05 70-1.65L70-1.65 70-11.8 58.75-33.75Q58.55-33.9 58.35-34L58.35-34 56.25-34.2Q56.2-34.5 56.2-34.95L56.2-34.95 66.3-35Q66.3-34.95 66.35-34.25L66.35-34.25 62.25-33.9 72.6-12.65 81.95-33.15Q81.95-33.75 81.5-33.8L81.5-33.8 76.95-34.2Q76.9-34.5 76.9-34.95L76.9-34.95ZM89.94-34.95L99.99-35Q99.99-34.95 100.04-34.25L100.04-34.25 96.59-33.95 96.59-1 110.39-1 111.39-9 112.34-8.75 111.59 0 99.99 0 89.94 0.05 89.99-0.65 92.59-1Q93.09-1.05 93.19-1.65L93.19-1.65 93.19-33.3Q93.09-33.9 92.59-33.95L92.59-33.95 89.99-34.2 89.94-34.95ZM125.49 0L115.44 0.05 115.49-0.65 118.09-1Q118.59-1.05 118.69-1.65L118.69-1.65 118.74-1.65 118.74-33.25 118.69-33.25Q118.59-33.9 118.09-33.95L118.09-33.95 115.49-34.2 115.44-34.95 125.49-35Q125.49-34.95 125.54-34.25L125.54-34.25 122.14-33.95 122.14-0.95 125.54-0.75Q125.54-0.7 125.49 0L125.49 0ZM131.99-33.95L129.34-34.25 129.39-35 136.24-35 155.69-1.4 155.44-33.25Q155.24-33.75 154.89-33.8L154.89-33.8 150.29-34.2Q150.24-34.5 150.24-34.95L150.24-34.95 159.74-35Q159.74-34.95 159.79-34.25L159.79-34.25 156.59-33.9 156.59 0 152.94 0 133.49-33.6 133.74-1.05 139.44-0.75Q139.44-0.7 139.39 0L139.39 0 129.34 0.05 129.39-0.65 131.99-1Q132.49-1.05 132.59-1.65L132.59-1.65 132.59-33.3Q132.49-33.9 131.99-33.95L131.99-33.95ZM166.04-33.95L163.39-34.25 163.44-35 184.84-35 184.79-34.85 185.44-27.8 184.44-27.4 183.64-34 170.04-34 170.04-17.85 181.99-17.85Q182.24-17.8 182.44-17.98 182.64-18.15 182.64-18.45L182.64-18.45 182.84-21.9 183.64-22 183.64-13.45Q183.59-13.45 182.89-13.4L182.89-13.4 182.69-16.85 170.04-16.85 170.04-1 184.99-1 185.94-9 186.89-8.75 186.14 0 173.44 0 163.39 0.05 163.44-0.65 166.04-1Q166.54-1.05 166.64-1.65L166.64-1.65 166.64-33.3Q166.54-33.9 166.04-33.95L166.04-33.95ZM214.98-0.95L214.98-0.95Q218.68-0.95 221.48-3.13 224.28-5.3 224.28-9.75L224.28-9.75Q224.28-11.75 223.31-13.18 222.33-14.6 220.73-15.38 219.13-16.15 217.23-16.73 215.33-17.3 213.43-17.95 211.53-18.6 209.93-19.5 208.33-20.4 207.36-22.05 206.38-23.7 206.38-26L206.38-26Q206.38-30 209.13-32.55 211.88-35.1 216.48-35.1 221.08-35.1 225.28-34.05L225.28-34.05 225.83-27.8 224.88-27.4 224.38-31.35Q220.68-34.1 217.43-34.1 214.18-34.1 211.98-32.13 209.78-30.15 209.78-26.2L209.78-26.2Q209.78-23.9 211.63-22.55 213.48-21.2 216.11-20.45 218.73-19.7 221.36-18.75 223.98-17.8 225.83-15.55 227.68-13.3 227.68-9.7L227.68-9.7Q227.68-4.85 224.23-2.4 220.78 0.05 215.13 0.05 209.48 0.05 205.33-3L205.33-3 205.38-8.3 206.33-8.55 206.43-5.7Q207.78-3.8 210.13-2.38 212.48-0.95 214.98-0.95ZM231.18-34.95L241.18-35Q241.18-34.95 241.23-34.25L241.23-34.25 237.83-33.95 237.83-15.05Q237.83-6.35 240.88-3.5L240.88-3.5Q242.33-2.1 243.83-1.58 245.33-1.05 247.35-1.05 249.38-1.05 251.03-1.6 252.68-2.15 254.23-3.6L254.23-3.6Q257.53-6.6 257.53-15.05L257.53-15.05 257.53-33.15Q257.43-33.8 256.93-33.85L256.93-33.85 253.33-34.2Q253.28-34.5 253.28-34.95L253.28-34.95 262.78-35Q262.78-34.95 262.83-34.25L262.83-34.25 258.68-33.8 258.68-15Q258.68 0.2 247.33 0.2L247.33 0.2Q244.58 0.2 242.5-0.38 240.43-0.95 238.48-2.5L238.48-2.5Q234.43-5.65 234.43-15L234.43-15 234.43-33.3Q234.23-33.9 233.83-33.95L233.83-33.95 231.23-34.2Q231.18-34.5 231.18-34.95L231.18-34.95ZM275.63 0L265.58 0.05 265.63-0.65 268.23-1Q268.73-1.05 268.83-1.65L268.83-1.65 268.88-1.65 268.88-33.25 268.83-33.25Q268.73-33.9 268.23-33.95L268.23-33.95 265.63-34.2 265.58-34.95 275.63-35Q275.63-34.95 275.68-34.25L275.68-34.25 272.28-33.95 272.28-0.95 275.68-0.75Q275.68-0.7 275.63 0L275.63 0ZM287.92-1.65L287.92-34 279.32-34 278.52-27.4 277.57-27.8 278.07-34 278.02-34 278.12-34.4 278.17-35 278.27-34.95 278.27-35 300.97-35 301.62-27.8 300.62-27.4 299.82-34 291.07-34 291.07-0.95 294.72-0.75Q294.72-0.7 294.67 0L294.67 0 284.67 0.05Q284.67-0.4 284.72-0.65L284.72-0.65 287.32-1Q287.82-1.05 287.92-1.65L287.92-1.65ZM307.07-33.95L304.42-34.25 304.47-35 325.87-35 325.82-34.85 326.47-27.8 325.47-27.4 324.67-34 311.07-34 311.07-17.85 323.02-17.85Q323.27-17.8 323.47-17.98 323.67-18.15 323.67-18.45L323.67-18.45 323.87-21.9 324.67-22 324.67-13.45Q324.62-13.45 323.92-13.4L323.92-13.4 323.72-16.85 311.07-16.85 311.07-1 326.02-1 326.97-9 327.92-8.75 327.17 0 314.47 0 304.42 0.05 304.47-0.65 307.07-1Q307.57-1.05 307.67-1.65L307.67-1.65 307.67-33.3Q307.57-33.9 307.07-33.95L307.07-33.95ZM341.07-0.95L341.07-0.95Q344.77-0.95 347.57-3.13 350.37-5.3 350.37-9.75L350.37-9.75Q350.37-11.75 349.39-13.18 348.42-14.6 346.82-15.38 345.22-16.15 343.32-16.73 341.42-17.3 339.52-17.95 337.62-18.6 336.02-19.5 334.42-20.4 333.44-22.05 332.47-23.7 332.47-26L332.47-26Q332.47-30 335.22-32.55 337.97-35.1 342.57-35.1 347.17-35.1 351.37-34.05L351.37-34.05 351.92-27.8 350.97-27.4 350.47-31.35Q346.77-34.1 343.52-34.1 340.27-34.1 338.07-32.13 335.87-30.15 335.87-26.2L335.87-26.2Q335.87-23.9 337.72-22.55 339.57-21.2 342.19-20.45 344.82-19.7 347.44-18.75 350.07-17.8 351.92-15.55 353.77-13.3 353.77-9.7L353.77-9.7Q353.77-4.85 350.32-2.4 346.87 0.05 341.22 0.05 335.57 0.05 331.42-3L331.42-3 331.47-8.3 332.42-8.55 332.52-5.7Q333.87-3.8 336.22-2.38 338.57-0.95 341.07-0.95Z" opacity="1" transform="matrix(1,0,0,1,0,0)" fill="#ffffff" class="undefined-text-0" data-fill-palette-color="primary" id="text-0"></path></svg></g></svg></g><g transform="matrix(1,0,0,1,75.54432,49.09092623255867)"><svg viewBox="0 0 244.43135999999998 15.214400786240786" height="15.214400786240786" width="244.43135999999998"><g transform="matrix(1,0,0,1,0,0)"><svg width="244.43135999999998" viewBox="3 -37.5 610.4400024414062 38" height="15.214400786240786" data-palette-color="#ffffff"><path d="M28.5 0L3 0 3-0.8 7.05-2.8 7.05-30.2 3-32.2 3-33 16.85-33 16.85-32.2 12.3-30.2 12.3-2.75 24.15-2.75 27.7-11.35 28.5-11.35 28.5 0ZM42.95 0.5L42.95 0.5Q40 0.5 38.12-1 36.25-2.5 36.25-5.4L36.25-5.4 36.25-20.2 33.05-21.75 33.05-22.55 40.95-22.55 40.95-7.7Q40.95-5.6 42.22-4.5 43.5-3.4 45.55-3.4L45.55-3.4Q46.8-3.4 48.3-3.83 49.8-4.25 50.7-5.1L50.7-5.1 50.7-20.2 47.3-21.75 47.3-22.55 55.45-22.55 55.45-2.25 58.9-0.8 58.9 0 50.7 0 50.7-3.15 50.45-3.15Q48.6-1.3 46.85-0.4 45.1 0.5 42.95 0.5ZM70.3 0L61.4 0 61.4-0.8 64.1-2.5 70.7-11 63.95-20.25 61.6-21.75 61.6-22.55 72.7-22.55 72.7-21.75 69.45-20.3 69.45-20 73.9-13.95 77.9-19.7 77.9-20 75.15-21.75 75.15-22.55 83.6-22.55 83.6-21.75 80.95-20.05 75-12.45 82.4-2.3 84.45-0.8 84.45 0 73.9 0 73.9-0.8 76.85-2.25 76.85-2.55 71.8-9.45 67.25-2.85 67.25-2.55 70.3-0.8 70.3 0ZM96.79 0.5L96.79 0.5Q93.84 0.5 91.97-1 90.09-2.5 90.09-5.4L90.09-5.4 90.09-20.2 86.89-21.75 86.89-22.55 94.79-22.55 94.79-7.7Q94.79-5.6 96.07-4.5 97.34-3.4 99.39-3.4L99.39-3.4Q100.64-3.4 102.14-3.83 103.64-4.25 104.54-5.1L104.54-5.1 104.54-20.2 101.14-21.75 101.14-22.55 109.29-22.55 109.29-2.25 112.74-0.8 112.74 0 104.54 0 104.54-3.15 104.29-3.15Q102.44-1.3 100.69-0.4 98.94 0.5 96.79 0.5ZM127.99 0L116.39 0 116.39-0.8 119.59-2.4 119.59-17.3 116.54-19.85 116.54-20.25 123.44-23.05 123.84-23.05 124.29-18.75 124.49-18.75Q125.64-20.65 126.59-21.58 127.54-22.5 128.39-22.78 129.24-23.05 130.14-23.05L130.14-23.05Q130.59-23.05 131.12-22.93 131.64-22.8 131.99-22.65L131.99-22.65Q132.59-22.4 133.04-22.05 133.49-21.7 133.49-21.25L133.49-21.25Q133.49-20.8 133.29-20.35L133.29-20.35 132.24-17.7 131.89-17.7 130.14-18.4Q129.54-18.6 128.99-18.68 128.44-18.75 127.89-18.75L127.89-18.75Q125.74-18.75 124.34-16.7L124.34-16.7 124.34-2.4 127.99-0.8 127.99 0ZM142.09-28.85L142.09-28.85Q140.74-28.85 139.84-29.75 138.94-30.65 138.94-32L138.94-32Q138.94-33.4 139.84-34.27 140.74-35.15 142.09-35.15L142.09-35.15Q143.44-35.15 144.34-34.27 145.24-33.4 145.24-32L145.24-32Q145.24-30.65 144.34-29.75 143.44-28.85 142.09-28.85ZM147.69 0L136.69 0 136.69-0.8 139.89-2.4 139.89-17.35 136.84-19.9 136.84-20.3 144.24-23.05 144.59-23.05 144.59-2.4 147.69-0.8 147.69 0ZM163.09 0.5L163.09 0.5Q158.19 0.5 155.34-2.45 152.49-5.4 152.49-10.3L152.49-10.3Q152.49-14 154.01-16.9 155.54-19.8 158.06-21.43 160.59-23.05 163.54-23.05L163.54-23.05Q167.54-23.05 169.79-20.33 172.04-17.6 172.09-12.5L172.09-12.5 171.84-12.25 157.09-12.25Q157.14-9.95 157.96-8 158.79-6.05 160.61-4.85 162.44-3.65 165.54-3.65L165.54-3.65Q168.39-3.65 171.99-5.55L171.99-5.55 172.14-5.55 172.14-4.95Q170.94-2.65 168.59-1.07 166.24 0.5 163.09 0.5ZM162.64-20.85L162.64-20.85Q160.44-20.85 159.01-19.2 157.59-17.55 157.19-14.55L157.19-14.55 167.84-14.55Q167.34-17.95 166.04-19.4 164.74-20.85 162.64-20.85ZM185.08 0.5L185.08 0.5Q182.68 0.5 180.96 0.08 179.23-0.35 177.48-1.25L177.48-1.25 177.48-6.85 178.23-6.85 179.83-4.15Q181.48-1.4 184.93-1.4L184.93-1.4Q186.93-1.4 188.01-2.3 189.08-3.2 189.08-4.8L189.08-4.8Q189.08-6.1 188.41-6.9 187.73-7.7 186.46-8.3 185.18-8.9 183.38-9.75L183.38-9.75Q180.78-10.9 179.41-12.3 178.03-13.7 178.03-16.15L178.03-16.15Q178.03-18.1 179.11-19.65 180.18-21.2 181.88-22.13 183.58-23.05 185.48-23.05L185.48-23.05Q187.28-23.05 188.88-22.63 190.48-22.2 192.03-21.4L192.03-21.4 192.03-15.85 191.33-15.85 189.68-18.45Q188.03-21.05 185.63-21.05L185.63-21.05Q183.98-21.05 182.98-20.23 181.98-19.4 181.98-17.95L181.98-17.95Q181.98-16.35 183.16-15.48 184.33-14.6 186.83-13.5L186.83-13.5Q188.28-12.85 189.68-12.13 191.08-11.4 192.01-10.13 192.93-8.85 192.93-6.5L192.93-6.5Q192.93-4.2 191.71-2.65 190.48-1.1 188.68-0.3 186.88 0.5 185.08 0.5ZM224.88 0L211.63 0 211.63-0.8 215.68-2.8 215.68-30.2 211.63-32.2 211.63-33 224.88-33 224.88-32.2 220.93-30.2 220.93-18.4 237.18-18.4 237.18-30.2 233.18-32.2 233.18-33 246.43-33 246.43-32.2 242.38-30.2 242.38-2.8 246.43-0.8 246.43 0 233.18 0 233.18-0.8 237.18-2.8 237.18-15.65 220.93-15.65 220.93-2.8 224.88-0.8 224.88 0ZM262.98 0.5L262.98 0.5Q259.63 0.5 257.1-1.07 254.58-2.65 253.15-5.33 251.73-8 251.73-11.3L251.73-11.3Q251.73-14.6 253.15-17.28 254.58-19.95 257.1-21.5 259.63-23.05 262.98-23.05L262.98-23.05Q266.33-23.05 268.83-21.5 271.33-19.95 272.75-17.28 274.18-14.6 274.18-11.3L274.18-11.3Q274.18-8 272.75-5.33 271.33-2.65 268.83-1.07 266.33 0.5 262.98 0.5ZM263.63-1.7L263.63-1.7Q265.53-1.7 266.73-2.95 267.93-4.2 268.48-6.15 269.03-8.1 269.03-10.3L269.03-10.3Q269.03-12.95 268.35-15.38 267.68-17.8 266.23-19.35 264.78-20.9 262.43-20.9L262.43-20.9Q260.53-20.9 259.28-19.68 258.03-18.45 257.45-16.5 256.88-14.55 256.88-12.35L256.88-12.35Q256.88-9.7 257.58-7.25 258.28-4.8 259.78-3.25 261.28-1.7 263.63-1.7ZM287.07 0.5L287.07 0.5Q284.67 0.5 283-0.8 281.32-2.1 281.32-4.45L281.32-4.45 281.32-20.25 277.32-20.25 277.32-20.65 281.67-22.55 285.57-28.05 286.02-28.05 286.02-22.55 292.67-22.55 292.67-20.25 286.02-20.25 286.02-5.4Q286.02-4.1 287.15-3.5 288.27-2.9 289.82-2.9L289.82-2.9Q290.77-2.9 291.57-3 292.37-3.1 293.02-3.25L293.02-3.25 293.17-3.25 293.17-2.65Q292.57-1.5 291-0.5 289.42 0.5 287.07 0.5ZM307.57 0.5L307.57 0.5Q302.67 0.5 299.82-2.45 296.97-5.4 296.97-10.3L296.97-10.3Q296.97-14 298.5-16.9 300.02-19.8 302.55-21.43 305.07-23.05 308.02-23.05L308.02-23.05Q312.02-23.05 314.27-20.33 316.52-17.6 316.57-12.5L316.57-12.5 316.32-12.25 301.57-12.25Q301.62-9.95 302.45-8 303.27-6.05 305.1-4.85 306.92-3.65 310.02-3.65L310.02-3.65Q312.87-3.65 316.47-5.55L316.47-5.55 316.62-5.55 316.62-4.95Q315.42-2.65 313.07-1.07 310.72 0.5 307.57 0.5ZM307.12-20.85L307.12-20.85Q304.92-20.85 303.5-19.2 302.07-17.55 301.67-14.55L301.67-14.55 312.32-14.55Q311.82-17.95 310.52-19.4 309.22-20.85 307.12-20.85ZM332.02 0L321.02 0 321.02-0.8 324.17-2.4 324.17-31.8 321.17-34.35 321.17-34.75 328.52-37.5 328.92-37.5 328.92-2.4 332.02-0.8 332.02 0ZM357.71 0L356.46 0 348.51-20.25 345.21-21.75 345.21-22.55 357.66-22.55 357.66-21.75 353.71-20.3 353.71-20 358.71-6.8 358.91-6.8 365.71-22.55 366.96-22.55 373.76-6.95 373.96-6.95 378.86-19.75 378.86-20 375.36-21.75 375.36-22.55 385.16-22.55 385.16-21.75 381.51-20.05 373.06 0 371.81 0 364.86-15.65 357.71 0ZM391.71-28.85L391.71-28.85Q390.36-28.85 389.46-29.75 388.56-30.65 388.56-32L388.56-32Q388.56-33.4 389.46-34.27 390.36-35.15 391.71-35.15L391.71-35.15Q393.06-35.15 393.96-34.27 394.86-33.4 394.86-32L394.86-32Q394.86-30.65 393.96-29.75 393.06-28.85 391.71-28.85ZM397.31 0L386.31 0 386.31-0.8 389.51-2.4 389.51-17.35 386.46-19.9 386.46-20.3 393.86-23.05 394.21-23.05 394.21-2.4 397.31-0.8 397.31 0ZM410.31 0.5L410.31 0.5Q407.91 0.5 406.23-0.8 404.56-2.1 404.56-4.45L404.56-4.45 404.56-20.25 400.56-20.25 400.56-20.65 404.91-22.55 408.81-28.05 409.26-28.05 409.26-22.55 415.91-22.55 415.91-20.25 409.26-20.25 409.26-5.4Q409.26-4.1 410.38-3.5 411.51-2.9 413.06-2.9L413.06-2.9Q414.01-2.9 414.81-3 415.61-3.1 416.26-3.25L416.26-3.25 416.41-3.25 416.41-2.65Q415.81-1.5 414.23-0.5 412.66 0.5 410.31 0.5ZM431.26 0L420.06 0 420.06-0.8 423.26-2.4 423.26-31.8 420.21-34.35 420.21-34.75 427.61-37.5 427.96-37.5 427.96-19.35 428.16-19.35Q430.06-21.2 431.81-22.13 433.56-23.05 435.76-23.05L435.76-23.05Q438.66-23.05 440.58-21.58 442.51-20.1 442.51-17.15L442.51-17.15 442.51-2.4 445.66-0.8 445.66 0 434.46 0 434.46-0.8 437.76-2.25 437.76-14.85Q437.76-17 436.46-18.07 435.16-19.15 433.11-19.15L433.11-19.15Q431.86-19.15 430.36-18.75 428.86-18.35 427.96-17.5L427.96-17.5 427.96-2.25 431.26-0.8 431.26 0ZM475.35 0L462.65 0 462.65-0.8 466.7-2.8 466.7-30.1 462.7-32.2 462.7-33 470.55-33 489.7-9.45 489.7-30.25 484.55-32.2 484.55-33 497.2-33 497.2-32.2 493.2-30.25 493.2 0.25 491.05 0.25 470.2-25.35 470.2-2.75 475.35-0.8 475.35 0ZM507.75 0.5L507.75 0.5Q505.35 0.5 503.77-0.93 502.2-2.35 502.2-4.85L502.2-4.85Q502.2-7.3 503.97-9.08 505.75-10.85 510.15-11.9L510.15-11.9 514.9-13 514.9-16.5Q514.9-18.3 513.57-19.5 512.25-20.7 510.5-20.7L510.5-20.7Q508.65-20.7 507.92-19.75 507.2-18.8 507.2-17.15L507.2-17.15 507.2-15.55 506.95-15.3 504.2-15.3Q503.45-15.3 503.17-15.58 502.9-15.85 502.9-16.75L502.9-16.75Q502.9-17.85 503.57-18.98 504.25-20.1 505.65-20.95L505.65-20.95Q507.15-21.9 508.7-22.48 510.25-23.05 512-23.05L512-23.05Q513.9-23.05 515.67-22.53 517.45-22 518.55-20.75 519.65-19.5 519.65-17.4L519.65-17.4 519.65-3.45Q520-3.1 520.62-2.85 521.25-2.6 522.35-2.6L522.35-2.6 524.1-2.6 524.3-2.5 524.3-2.2Q523.7-1.15 522.47-0.33 521.25 0.5 519.5 0.5L519.5 0.5Q517.8 0.5 516.75-0.33 515.7-1.15 515.25-2.6L515.25-2.6 514.9-2.6Q513.6-1.3 511.72-0.4 509.85 0.5 507.75 0.5ZM506.75-5.95L506.75-5.95Q506.75-2.85 510.4-2.85L510.4-2.85Q511.5-2.85 512.52-3.08 513.55-3.3 514.9-3.85L514.9-3.85 514.9-11.25Q511.3-10.55 509.55-9.75 507.8-8.95 507.27-8.03 506.75-7.1 506.75-5.95ZM535.3 0.5L535.3 0.5Q532.9 0.5 531.22-0.8 529.55-2.1 529.55-4.45L529.55-4.45 529.55-20.25 525.55-20.25 525.55-20.65 529.9-22.55 533.8-28.05 534.25-28.05 534.25-22.55 540.9-22.55 540.9-20.25 534.25-20.25 534.25-5.4Q534.25-4.1 535.37-3.5 536.5-2.9 538.05-2.9L538.05-2.9Q539-2.9 539.8-3 540.6-3.1 541.25-3.25L541.25-3.25 541.4-3.25 541.4-2.65Q540.8-1.5 539.22-0.5 537.65 0.5 535.3 0.5ZM553.99 0.5L553.99 0.5Q551.04 0.5 549.17-1 547.29-2.5 547.29-5.4L547.29-5.4 547.29-20.2 544.09-21.75 544.09-22.55 551.99-22.55 551.99-7.7Q551.99-5.6 553.27-4.5 554.54-3.4 556.59-3.4L556.59-3.4Q557.84-3.4 559.34-3.83 560.84-4.25 561.74-5.1L561.74-5.1 561.74-20.2 558.34-21.75 558.34-22.55 566.49-22.55 566.49-2.25 569.94-0.8 569.94 0 561.74 0 561.74-3.15 561.49-3.15Q559.64-1.3 557.89-0.4 556.14 0.5 553.99 0.5ZM585.19 0L573.59 0 573.59-0.8 576.79-2.4 576.79-17.3 573.74-19.85 573.74-20.25 580.64-23.05 581.04-23.05 581.49-18.75 581.69-18.75Q582.84-20.65 583.79-21.58 584.74-22.5 585.59-22.78 586.44-23.05 587.34-23.05L587.34-23.05Q587.79-23.05 588.32-22.93 588.84-22.8 589.19-22.65L589.19-22.65Q589.79-22.4 590.24-22.05 590.69-21.7 590.69-21.25L590.69-21.25Q590.69-20.8 590.49-20.35L590.49-20.35 589.44-17.7 589.09-17.7 587.34-18.4Q586.74-18.6 586.19-18.68 585.64-18.75 585.09-18.75L585.09-18.75Q582.94-18.75 581.54-16.7L581.54-16.7 581.54-2.4 585.19-0.8 585.19 0ZM604.39 0.5L604.39 0.5Q599.49 0.5 596.64-2.45 593.79-5.4 593.79-10.3L593.79-10.3Q593.79-14 595.31-16.9 596.84-19.8 599.36-21.43 601.89-23.05 604.84-23.05L604.84-23.05Q608.84-23.05 611.09-20.33 613.34-17.6 613.39-12.5L613.39-12.5 613.14-12.25 598.39-12.25Q598.44-9.95 599.26-8 600.09-6.05 601.91-4.85 603.74-3.65 606.84-3.65L606.84-3.65Q609.69-3.65 613.29-5.55L613.29-5.55 613.44-5.55 613.44-4.95Q612.24-2.65 609.89-1.07 607.54 0.5 604.39 0.5ZM603.94-20.85L603.94-20.85Q601.74-20.85 600.31-19.2 598.89-17.55 598.49-14.55L598.49-14.55 609.14-14.55Q608.64-17.95 607.34-19.4 606.04-20.85 603.94-20.85Z" opacity="1" transform="matrix(1,0,0,1,0,0)" fill="#ffffff" class="undefined-text-1" data-fill-palette-color="secondary" id="text-1"></path></svg></g></svg></g></svg></g></svg></g><g transform="matrix(1,0,0,1,118.55452485882093,0)"><svg viewBox="0 0 158.41095028235813 158.41095028235813" height="158.41095028235813" width="158.41095028235813"><g><svg></svg></g><g id="icon-0"><svg viewBox="0 0 158.41095028235813 158.41095028235813" height="158.41095028235813" width="158.41095028235813"><g><path d="M0 79.205c0-43.744 35.462-79.205 79.205-79.205 43.744 0 79.205 35.462 79.206 79.205 0 43.744-35.462 79.205-79.206 79.206-43.744 0-79.205-35.462-79.205-79.206zM79.205 154.829c41.766 0 75.624-33.858 75.624-75.624 0-41.766-33.858-75.624-75.624-75.623-41.766 0-75.624 33.858-75.623 75.623 0 41.766 33.858 75.624 75.623 75.624z" data-fill-palette-color="accent" fill="#ffffff" stroke="transparent"></path></g><g transform="matrix(1,0,0,1,31.683405145795803,41.13726297574293)"><svg viewBox="0 0 95.04413999076652 76.13642433087227" height="76.13642433087227" width="95.04413999076652"><g><svg xmlns="http://www.w3.org/2000/svg" xmlns:xlink="http://www.w3.org/1999/xlink" version="1.1" x="0" y="0" viewBox="3 10.40000057220459 93.99999237060547 75.29999542236328" enable-background="new 0 0 100 100" xml:space="preserve" height="76.13642433087227" width="95.04413999076652" class="icon-s-0" data-fill-palette-color="accent" id="s-0"><g fill="#ffffff" data-fill-palette-color="accent"><path d="M92.7 84.5V70.3h1v-1.2h-1-3.3v-1.6h1.3v-1.2h-1.3v-0.7h1.3v-1.2h-1.3v-0.9h-1.2v0.9h-1.3v1.2h1.3v0.7h-1.3v1.2h1.3v1.6H84V46.6h0.8v-1.2H84v-2.1H72.2v-4h0.7v-1.2h-0.7 0c-0.3-2.6-2.4-4.7-5-5v-1.6h-1.2v1.6c-2.6 0.3-4.7 2.4-5 5h0-0.7v1.2h0.7v8.8h-10V31.4H40.5v-3.1h0.8v-1.2h-0.8v-6.7h0.8v-1.2h-1.2l-4.7-5.6-4.7 5.6h-1.2v1.2h0.8v6.7h-0.8v1.2h0.8v22.2H15.9h-0.6-1.7v1.2h1.7v32.8h-1.1v1.2h3.3 4.1 11.8 4.1 5.7 4.1 4.2 2.9 1.2 2.9 27.2 4.1 7.2v-1.2H92.7zM35.4 15.5l3.1 3.7h-6.3L35.4 15.5zM20.4 84.5h-1.7v-5h1.7V84.5zM36.3 84.5h-1.7v-5h1.7V84.5zM39.3 75.3h-6.4v1.2h6.4v7.9h-1.8v-6.3h-4.1v6.3h-1.8V71.8h-1.2v12.7h-8.8v-6.3h-4.1v6.3h-1V51.7h13.9v15h1.2V28.3h7.7V75.3zM39.3 27.1h-7.7v-6.7h7.7V27.1zM46.1 84.5h-1.7v-3.3h1.7V84.5zM54.3 84.5h-1.7v-4.5h1.7V84.5zM57.2 84.5h-1.7v-4.5h1.7V84.5zM60.9 51.7h-8.2v1.2h8.2v2.2h-7.4v1.2h7.4v2.2h-8.2v1.2h8.2v2.2h-5.5V63h5.5v2.2h-8.2v1.2h8.2v2.2h-7.4v1.2h7.4V72h-9.7v1.2h9.7v2.2H46.7v1.2h14.2v7.9h-2.5v-5.8h-2.9-1.2-2.9v5.8h-4.2v-4.5h-4.1v4.5h-2.7v-7.9h3.7v-1.2h-3.7V32.7h9.2v31.1h1.2V49.3h10V51.7zM66.5 34.3c2.2 0 4.1 1.7 4.4 3.8h-8.8C62.5 35.9 64.3 34.3 66.5 34.3zM62.1 39.3H71v8.8h-6.3v-8.2h-1.2v8.2h-1.4V39.3zM88.6 84.5h-1.7v-3.3h1.7V84.5zM91.5 71.8h-5.8v1.2h5.8v1.4h-5.8v1.2h5.8V77h-5.8v1.2h5.8v6.3h-1.8v-4.5h-4.1v4.5H72.2v-0.7h1.9l-2.5-9.2-2.5 9.2H71v0.7h-4.8v-0.7h1.9l-2.5-9.2-2.5 9.2H65v0.7h-2.9V49.3h1.4v23.8h1.2V49.3H71v18.2h1.2V49.3h0.6v-1.2h-0.6v-3.6h10.6v33.7H84v-7.9h7.5V71.8zM70.7 82.6l0.9-3.3 0.9 3.3H70.7zM64.7 82.6l0.9-3.3 0.9 3.3H64.7z" fill="#ffffff" data-fill-palette-color="accent"></path><rect x="17.8" y="75.6" width="3.7" height="1.2" fill="#ffffff" data-fill-palette-color="accent"></rect><rect x="17.8" y="72.6" width="3.7" height="1.2" fill="#ffffff" data-fill-palette-color="accent"></rect><rect x="17.8" y="69.8" width="3.7" height="1.2" fill="#ffffff" data-fill-palette-color="accent"></rect><rect x="18.4" y="54.4" width="1.2" height="3.7" fill="#ffffff" data-fill-palette-color="accent"></rect><rect x="21.9" y="54.4" width="1.2" height="3.7" fill="#ffffff" data-fill-palette-color="accent"></rect><rect x="25.4" y="54.4" width="1.2" height="3.7" fill="#ffffff" data-fill-palette-color="accent"></rect><rect x="18.4" y="60.9" width="1.2" height="3.7" fill="#ffffff" data-fill-palette-color="accent"></rect><rect x="21.9" y="60.9" width="1.2" height="3.7" fill="#ffffff" data-fill-palette-color="accent"></rect><rect x="43.2" y="34.9" width="1.2" height="3.7" fill="#ffffff" data-fill-palette-color="accent"></rect><rect x="46.7" y="34.9" width="1.2" height="3.7" fill="#ffffff" data-fill-palette-color="accent"></rect><rect x="43.2" y="41.7" width="1.2" height="3.7" fill="#ffffff" data-fill-palette-color="accent"></rect><rect x="46.7" y="41.7" width="1.2" height="3.7" fill="#ffffff" data-fill-palette-color="accent"></rect><rect x="43.2" y="48.4" width="1.2" height="3.7" fill="#ffffff" data-fill-palette-color="accent"></rect><rect x="46.7" y="48.4" width="1.2" height="3.7" fill="#ffffff" data-fill-palette-color="accent"></rect><rect x="43.2" y="55.1" width="1.2" height="3.7" fill="#ffffff" data-fill-palette-color="accent"></rect><rect x="46.7" y="55.1" width="1.2" height="3.7" fill="#ffffff" data-fill-palette-color="accent"></rect><rect x="43.2" y="61.9" width="1.2" height="3.7" fill="#ffffff" data-fill-palette-color="accent"></rect><rect x="46.7" y="61.9" width="1.2" height="3.7" fill="#ffffff" data-fill-palette-color="accent"></rect><rect x="75.9" y="47.5" width="1.2" height="3.7" fill="#ffffff" data-fill-palette-color="accent"></rect><rect x="79.4" y="47.5" width="1.2" height="3.7" fill="#ffffff" data-fill-palette-color="accent"></rect><rect x="75.9" y="54.3" width="1.2" height="3.7" fill="#ffffff" data-fill-palette-color="accent"></rect><rect x="79.4" y="54.3" width="1.2" height="3.7" fill="#ffffff" data-fill-palette-color="accent"></rect><rect x="75.9" y="61" width="1.2" height="3.7" fill="#ffffff" data-fill-palette-color="accent"></rect><rect x="79.4" y="61" width="1.2" height="3.7" fill="#ffffff" data-fill-palette-color="accent"></rect><rect x="75.9" y="67.7" width="1.2" height="3.7" fill="#ffffff" data-fill-palette-color="accent"></rect><rect x="79.4" y="67.7" width="1.2" height="3.7" fill="#ffffff" data-fill-palette-color="accent"></rect><rect x="75.9" y="74.5" width="1.2" height="3.7" fill="#ffffff" data-fill-palette-color="accent"></rect><rect x="79.4" y="74.5" width="1.2" height="3.7" fill="#ffffff" data-fill-palette-color="accent"></rect><rect x="43.2" y="68.6" width="1.2" height="3.7" fill="#ffffff" data-fill-palette-color="accent"></rect><rect x="46.7" y="68.6" width="1.2" height="3.7" fill="#ffffff" data-fill-palette-color="accent"></rect><rect x="25.4" y="60.9" width="1.2" height="3.7" fill="#ffffff" data-fill-palette-color="accent"></rect><rect x="25.4" y="67.2" width="1.2" height="3.7" fill="#ffffff" data-fill-palette-color="accent"></rect><rect x="34.8" y="69.1" width="1.2" height="4.6" fill="#ffffff" data-fill-palette-color="accent"></rect><path d="M35.4 26c1.3 0 2.4-1.1 2.4-2.4s-1.1-2.4-2.4-2.4c-1.3 0-2.4 1.1-2.4 2.4S34.1 26 35.4 26zM35.4 22.5c0.6 0 1.2 0.5 1.2 1.2 0 0.6-0.5 1.2-1.2 1.2-0.6 0-1.2-0.5-1.2-1.2C34.3 23 34.8 22.5 35.4 22.5z" fill="#ffffff" data-fill-palette-color="accent"></path><path d="M33.8 66.6H37V53.8h-3.2V66.6zM35 55h0.8v10.4H35V55z" fill="#ffffff" data-fill-palette-color="accent"></path><path d="M33.8 50H37V37.1h-3.2V50zM35 38.3h0.8v10.4H35V38.3z" fill="#ffffff" data-fill-palette-color="accent"></path><rect x="32.8" y="31.2" width="1.2" height="2.5" fill="#ffffff" data-fill-palette-color="accent"></rect><rect x="34.8" y="31.2" width="1.2" height="2.5" fill="#ffffff" data-fill-palette-color="accent"></rect><rect x="36.9" y="31.2" width="1.2" height="2.5" fill="#ffffff" data-fill-palette-color="accent"></rect><path d="M13.7 83.8l-2.5-9.2-2.5 9.2h1.9v0.7H7.7v1.2h5.1v-1.2h-1.1v-0.7H13.7zM10.3 82.6l0.9-3.3 0.9 3.3H10.3z" fill="#ffffff" data-fill-palette-color="accent"></path><path d="M69 47.3l1.2-2.1L69 43.1h-2.4l-1.2 2.1 1.2 2.1H69zM67.3 44.3h1l0.5 0.8L68.3 46h-1l-0.5-0.8L67.3 44.3z" fill="#ffffff" data-fill-palette-color="accent"></path><rect x="65.9" y="52.1" width="1.2" height="21.1" fill="#ffffff" data-fill-palette-color="accent"></rect><rect x="68.4" y="54.9" width="1.2" height="18.3" fill="#ffffff" data-fill-palette-color="accent"></rect><rect x="68.4" y="50.7" width="1.2" height="3.2" fill="#ffffff" data-fill-palette-color="accent"></rect><rect x="82.8" y="79.1" width="1.2" height="1.9" fill="#ffffff" data-fill-palette-color="accent"></rect><rect x="3" y="53" width="10" height="1" fill="#ffffff" data-fill-palette-color="accent"></rect><path d="M5.2 51.7h6.7v-1.2H5.2c-0.2 0-0.4-0.2-0.4-0.4 0-0.2 0.2-0.4 0.4-0.4v-1.2c-0.9 0-1.6 0.7-1.6 1.6C3.6 51 4.3 51.7 5.2 51.7z" fill="#ffffff" data-fill-palette-color="accent"></path><path d="M9 57.6c-0.4 0-0.8-0.4-0.8-0.8C8.2 56.4 8.5 56 9 56h3.9v-1.2H9c-1.1 0-2 0.9-2 2s0.9 2 2 2V57.6z" fill="#ffffff" data-fill-palette-color="accent"></path><path d="M14.6 35.1h6.1v-1.2h-6.1c-0.5 0-1-0.4-1-1 0-0.5 0.4-0.9 0.9-1l0.6-0.1 0-0.6c0-1 0.8-1.8 1.9-1.8 1 0 1.8 0.9 1.8 2V32l0.6 0c0.5 0 0.9 0.4 0.9 0.9h1.2c0-1-0.7-1.8-1.6-2.1-0.2-1.5-1.5-2.7-3-2.7-1.6 0-2.8 1.2-3 2.7-0.8 0.3-1.4 1.1-1.4 2.1C12.4 34.1 13.4 35.1 14.6 35.1z" fill="#ffffff" data-fill-palette-color="accent"></path><rect x="21.5" y="33.9" width="2.7" height="1.2" fill="#ffffff" data-fill-palette-color="accent"></rect><path d="M84.3 34.3h6.1v-1.2h-6.1c-0.5 0-1-0.4-1-1 0-0.5 0.4-0.9 0.9-1l0.6-0.1 0-0.6c0-1 0.8-1.8 1.8-1.8 1 0 1.8 0.9 1.8 2v0.6l0.6 0c0.5 0 0.9 0.4 0.9 0.9h1.2c0-1-0.7-1.8-1.6-2.1-0.2-1.5-1.5-2.7-3-2.7-1.5 0-2.8 1.2-3 2.6-0.8 0.3-1.4 1.1-1.4 2.1C82.1 33.3 83.1 34.3 84.3 34.3z" fill="#ffffff" data-fill-palette-color="accent"></path><rect x="91.1" y="33.1" width="2.7" height="1.2" fill="#ffffff" data-fill-palette-color="accent"></rect><path d="M50.8 23.8h7.8v-1.2h-7.8c-0.8 0-1.4-0.6-1.4-1.4 0-0.7 0.5-1.3 1.3-1.4l0.6-0.1 0-0.6c0-1.4 1.1-2.5 2.5-2.5 1.3 0 2.5 1.3 2.5 2.7v0.6l0.6 0c0.7 0 1.3 0.6 1.3 1.4h1.2c0-1.2-0.9-2.2-2-2.5-0.3-1.9-1.9-3.4-3.7-3.4-1.9 0-3.5 1.5-3.7 3.4-1.1 0.4-1.8 1.4-1.8 2.5C48.1 22.6 49.3 23.8 50.8 23.8z" fill="#ffffff" data-fill-palette-color="accent"></path><rect x="59.6" y="22.6" width="3.5" height="1.2" fill="#ffffff" data-fill-palette-color="accent"></rect><path d="M63.8 12.2c-1.9 0-3.5 1.6-3.5 3.5s1.6 3.5 3.5 3.5 3.5-1.6 3.5-3.5S65.7 12.2 63.8 12.2zM63.8 17.9c-1.2 0-2.3-1-2.3-2.3s1-2.3 2.3-2.3 2.3 1 2.3 2.3S65.1 17.9 63.8 17.9z" fill="#ffffff" data-fill-palette-color="accent"></path><rect x="63.2" y="10.4" width="1.2" height="1.2" fill="#ffffff" data-fill-palette-color="accent"></rect><rect x="60.9" y="11" transform="matrix(0.5 0.866 -0.866 0.5 40.8055 -47.4365)" width="1.2" height="1.2" fill="#ffffff" data-fill-palette-color="accent"></rect><rect x="59.2" y="12.7" transform="matrix(0.866 0.5 -0.5 0.866 14.6702 -28.1045)" width="1.2" height="1.2" fill="#ffffff" data-fill-palette-color="accent"></rect><rect x="58.6" y="15" width="1.2" height="1.2" fill="#ffffff" data-fill-palette-color="accent"></rect><rect x="59.2" y="17.4" transform="matrix(0.866 -0.5 0.5 0.866 -0.9793 32.2989)" width="1.2" height="1.2" fill="#ffffff" data-fill-palette-color="accent"></rect><rect x="60.9" y="19.1" transform="matrix(0.5 -0.866 0.866 0.5 13.6997 63.088)" width="1.2" height="1.2" fill="#ffffff" data-fill-palette-color="accent"></rect><rect x="63.2" y="19.7" width="1.2" height="1.2" fill="#ffffff" data-fill-palette-color="accent"></rect><rect x="65.5" y="19.1" transform="matrix(-0.8661 0.4999 -0.4999 -0.8661 133.2546 3.6606)" width="1.2" height="1.2" fill="#ffffff" data-fill-palette-color="accent"></rect><rect x="67.2" y="17.4" transform="matrix(0.866 0.5 -0.5 0.866 18.0777 -31.512)" width="1.2" height="1.2" fill="#ffffff" data-fill-palette-color="accent"></rect><rect x="67.9" y="15" width="1.2" height="1.2" fill="#ffffff" data-fill-palette-color="accent"></rect><rect x="67.2" y="12.7" transform="matrix(0.5 0.866 -0.866 0.5 45.4559 -52.0889)" width="1.2" height="1.2" fill="#ffffff" data-fill-palette-color="accent"></rect><rect x="65.5" y="11" transform="matrix(0.866 0.5 -0.5 0.866 14.6691 -31.5099)" width="1.2" height="1.2" fill="#ffffff" data-fill-palette-color="accent"></rect><path d="M62.5 14.4c-0.7 0.7-0.7 1.9 0 2.6l0.9-0.9c-0.2-0.2-0.2-0.6 0-0.8 0.1-0.1 0.3-0.2 0.4-0.2s0.3 0.1 0.4 0.2l0.9-0.9c-0.3-0.3-0.8-0.5-1.3-0.5S62.9 14 62.5 14.4z" fill="#ffffff" data-fill-palette-color="accent"></path></g></svg></g></svg></g></svg></g></svg></g><g></g></svg></g><defs></defs></svg><rect width="395.52" height="241.46785811217168" fill="none" stroke="none" visibility="hidden"></rect></g></svg></g></svg>